<?xml version="1.0" standalone="no"?>
<!DOCTYPE svg PUBLIC "-//W3C//DTD SVG 20010904//EN"
 "http://www.w3.org/TR/2001/REC-SVG-20010904/DTD/svg10.dtd">
<svg version="1.0" xmlns="http://www.w3.org/2000/svg"
 width="400.000000pt" height="400.000000pt" viewBox="0 0 400.000000 400.000000"
 preserveAspectRatio="xMidYMid meet">
<metadata>
Created by potrace 1.14, written by Peter Selinger 2001-2017
</metadata>
<g transform="translate(0.000000,400.000000) scale(0.100000,-0.100000)"
fill="#000000" stroke="none">
<path d="M0 2000 l0 -2000 2000 0 2000 0 0 2000 0 2000 -2000 0 -2000 0 0
-2000z m3270 1305 l0 -565 -811 0 -810 0 -125 -85 c-137 -94 -135 -95 -59 30
13 22 24 43 25 47 0 4 -66 9 -147 11 -82 1 317 4 885 5 l1032 2 0 525 0 525
-1110 0 -1110 0 -3 -342 -2 -343 -3 378 -2 377 1120 0 1120 0 0 -565z m-1380
90 c0 -59 3 -63 26 -40 20 20 63 19 86 -2 24 -22 27 -183 3 -183 -12 0 -15 14
-15 69 0 85 -6 101 -36 101 -42 0 -64 -36 -64 -107 0 -49 -3 -63 -15 -63 -13
0 -15 22 -15 140 0 118 2 140 15 140 12 0 15 -13 15 -55z m970 30 c0 -18 -5
-25 -19 -25 -24 0 -33 13 -25 34 10 27 44 20 44 -9z m-1610 -31 c0 -33 2 -35
28 -32 22 2 28 8 30 36 4 43 22 41 22 -3 0 -28 4 -35 20 -35 11 0 20 -4 20
-10 0 -5 -9 -10 -19 -10 -21 0 -31 -19 -31 -56 0 -17 6 -24 20 -24 11 0 20 -4
20 -10 0 -5 -11 -10 -25 -10 -22 0 -25 -4 -25 -35 0 -24 -5 -35 -14 -35 -11 0
-13 9 -9 35 5 34 5 35 -26 35 -29 0 -31 -2 -31 -35 0 -25 -4 -35 -15 -35 -13
0 -15 7 -9 35 5 31 4 35 -15 35 -11 0 -21 5 -21 10 0 6 7 10 15 10 15 0 35 37
35 66 0 8 -9 14 -20 14 -11 0 -20 5 -20 10 0 6 9 10 19 10 20 0 31 18 31 51 0
10 5 19 10 19 6 0 10 -16 10 -36z m405 -106 c8 -90 6 -91 44 5 15 39 27 34 47
-23 19 -53 34 -50 34 6 0 54 12 94 27 94 12 0 14 -8 9 -32 -3 -18 -8 -53 -11
-78 -11 -81 -15 -90 -35 -90 -14 0 -22 11 -30 40 -17 62 -27 57 -54 -22 -3
-10 -14 -18 -25 -18 -20 0 -21 6 -37 143 -5 47 -4 57 9 57 11 0 17 -19 22 -82z
m576 56 c19 -20 24 -36 24 -76 0 -42 -4 -53 -28 -74 -56 -48 -135 -23 -152 48
-9 35 11 94 38 113 35 24 90 19 118 -11z m215 12 c16 -12 20 -29 23 -100 2
-72 1 -86 -12 -86 -8 0 -17 5 -19 11 -3 9 -9 9 -25 0 -28 -14 -76 -14 -91 1
-17 17 -15 58 5 80 11 12 30 18 59 18 49 0 60 10 44 41 -10 18 -19 20 -61 17
-33 -2 -49 1 -49 9 0 6 6 14 13 16 26 11 94 6 113 -7z m103 -3 c9 -17 10 -17
16 0 9 21 41 22 53 1 8 -14 10 -14 21 0 18 22 48 20 61 -3 5 -11 10 -56 10
-100 0 -65 -3 -81 -15 -81 -12 0 -15 15 -15 79 0 84 -12 109 -37 76 -8 -12
-13 -46 -13 -87 0 -54 -3 -68 -15 -68 -12 0 -15 16 -15 85 0 64 -3 85 -13 85
-22 0 -37 -46 -37 -110 0 -47 -3 -60 -15 -60 -12 0 -15 18 -15 100 0 97 8 120
29 83z m311 -68 l0 -85 30 0 c20 0 30 -5 30 -15 0 -12 -16 -15 -81 -15 -60 0
-80 3 -77 13 3 6 19 13 36 15 l32 3 0 70 0 69 -30 0 c-20 0 -30 5 -30 15 0 11
12 15 45 15 l45 0 0 -85z m-1854 -148 c34 -53 58 -150 46 -185 -6 -17 -8 -33
-4 -36 3 -4 7 -17 9 -29 2 -21 2 -21 -12 3 -8 14 -15 39 -16 55 0 17 -5 41 -9
55 -6 17 -8 8 -5 -32 2 -32 -1 -60 -6 -63 -5 -4 -9 -33 -9 -66 0 -33 4 -58 9
-55 5 3 8 19 7 35 -1 17 2 27 7 24 5 -3 6 4 2 16 -3 12 -2 21 4 21 5 0 11 -10
13 -22 2 -12 9 -24 17 -26 12 -4 13 7 8 61 -7 77 1 85 58 52 43 -24 46 -37 31
-130 l-7 -40 18 38 c21 43 38 49 29 10 -4 -16 -10 -74 -13 -130 -5 -91 -8
-103 -24 -103 -10 0 -21 -4 -24 -10 -9 -15 -25 -12 -25 5 0 8 -4 15 -9 15 -5
0 -7 -8 -4 -18 6 -23 -31 -59 -43 -41 -4 7 -3 10 4 5 19 -11 21 9 7 50 l-14
39 -1 -36 c0 -33 -2 -36 -26 -33 -18 2 -24 -1 -20 -11 6 -16 -54 -32 -73 -20
-10 6 -16 45 -7 45 15 0 35 -14 30 -21 -3 -5 0 -9 5 -9 14 0 14 27 1 35 -5 3
-10 16 -11 28 0 21 -1 21 -9 2 -5 -11 -9 -14 -9 -7 -1 7 -6 10 -13 6 -6 -4 -8
-3 -5 3 5 8 -38 113 -48 113 -5 0 0 -29 8 -36 4 -4 -1 -13 -11 -20 -21 -16
-32 -17 -32 -3 0 5 4 8 9 4 5 -3 12 -1 16 5 3 5 -1 10 -9 10 -9 0 -16 5 -16
11 0 5 -4 8 -8 5 -5 -3 -9 1 -9 9 0 13 4 12 19 -2 10 -9 19 -13 19 -10 1 4 3
12 4 17 1 6 3 17 4 25 1 18 31 20 31 3 0 -7 10 -24 21 -38 13 -15 9 -2 -11 35
-30 55 -121 155 -141 155 -4 0 -6 9 -4 20 2 11 0 18 -6 15 -5 -4 -9 -2 -9 3 0
15 -28 23 -36 10 -4 -6 -3 -8 4 -4 6 3 14 1 18 -5 4 -8 3 -9 -4 -5 -7 4 -12 1
-12 -6 0 -10 -2 -10 -9 1 -12 18 -3 41 16 41 29 0 68 -33 101 -84 23 -36 40
-52 54 -52 15 1 29 -13 46 -44 14 -24 31 -51 39 -58 11 -11 13 -10 13 10 0 13
-6 33 -14 44 -10 14 -12 24 -4 35 8 11 8 10 3 -6 -3 -11 -2 -16 2 -11 10 10
11 126 1 119 -5 -2 -8 0 -8 6 0 5 6 12 13 14 9 4 9 8 -2 15 -8 6 -11 17 -8 26
4 9 2 16 -3 16 -6 0 -10 5 -10 11 0 5 4 8 9 4 5 -3 12 -1 16 5 3 5 1 11 -4 11
-26 3 -30 4 -37 11 -3 4 3 5 16 3 22 -4 22 -5 3 42 -3 9 3 12 21 11 15 -1 26
-9 27 -18 0 -8 3 -10 5 -4 13 30 -37 92 -55 68 -3 -5 -17 -18 -31 -29 l-25
-20 24 28 c18 19 20 27 10 28 -13 1 31 15 56 18 6 0 19 -14 31 -32z m-68 -31
c-7 -8 -15 -12 -17 -11 -5 6 10 25 20 25 5 0 4 -6 -3 -14z m2 -141 c0 -5 -5
-3 -10 5 -5 8 -10 20 -10 25 0 6 5 3 10 -5 5 -8 10 -19 10 -25z m-256 -41 c3
-8 2 -12 -4 -9 -6 3 -10 10 -10 16 0 14 7 11 14 -7z m24 -28 c-7 -8 -15 -12
-17 -11 -5 6 10 25 20 25 5 0 4 -6 -3 -14z m18 -18 c-20 -28 -20 -42 0 -62 10
-11 11 -16 3 -16 -7 0 -9 -3 -5 -7 4 -5 12 -8 17 -8 5 0 9 -3 9 -7 0 -5 0 -14
0 -20 0 -15 -33 30 -38 52 -9 32 -4 68 9 83 20 22 24 12 5 -15z m44 -42 c-1
-6 -7 0 -15 14 -8 14 -14 19 -15 11 0 -8 -3 -12 -6 -8 -3 3 -3 11 2 18 5 9 11
7 21 -6 7 -11 13 -24 13 -29z m61 -33 c13 -16 12 -17 -3 -4 -10 7 -18 15 -18
17 0 8 8 3 21 -13z m-21 -28 c14 -19 14 -19 -2 -6 -10 7 -18 18 -18 24 0 6 1
8 3 6 1 -2 9 -13 17 -24z m-31 -26 c-16 -10 -23 -4 -14 10 3 6 11 8 17 5 6 -4
5 -9 -3 -15z m72 -142 c-10 -9 -11 -8 -5 6 3 10 9 15 12 12 3 -3 0 -11 -7 -18z
m1987 -38 c26 -7 50 -15 55 -18 6 -6 -33 -57 -117 -151 -27 -31 -171 -197
-236 -273 -13 -15 -31 -25 -39 -23 -71 19 -131 40 -131 46 0 4 46 56 103 116
56 60 145 154 197 211 52 56 101 102 108 102 7 1 34 -4 60 -10z m-1949 -16
c-9 -10 -9 -14 -2 -10 7 5 21 -1 32 -12 15 -15 16 -21 6 -25 -7 -2 -19 2 -25
10 -18 21 -32 17 -20 -6 7 -14 7 -20 0 -20 -18 0 -15 60 3 72 19 12 20 9 6 -9z
m301 7 c0 -5 -7 -10 -16 -10 -9 0 -30 -10 -46 -22 -21 -14 -29 -17 -26 -7 2 8
20 22 39 31 39 21 49 22 49 8z m1789 -173 c59 -179 61 -197 22 -249 -18 -24
-75 -105 -128 -181 l-96 -138 -14 28 c-48 93 -80 136 -131 178 -31 26 -67 52
-79 58 -29 13 -29 15 10 57 17 19 79 89 137 155 57 66 122 138 143 161 21 22
45 51 54 64 15 21 17 22 29 6 6 -9 30 -72 53 -139z m-1946 116 c3 -5 -6 -8
-19 -8 -13 0 -24 3 -24 8 0 4 9 7 19 7 11 0 22 -3 24 -7z m-72 -29 c-12 -15
-21 -34 -22 -43 0 -11 -3 -8 -9 7 -15 36 -1 55 43 61 5 0 -1 -11 -12 -25z
m179 4 c0 -6 -6 -5 -15 2 -8 7 -15 14 -15 16 0 2 7 1 15 -2 8 -4 15 -11 15
-16z m-1 -48 c6 0 17 -23 25 -51 9 -28 21 -58 27 -65 20 -24 -7 -124 -41 -151
-8 -7 -28 -12 -45 -12 -16 1 -22 3 -12 6 18 5 20 12 17 56 -2 29 26 50 39 29
5 -8 12 -5 24 8 19 23 22 46 7 55 -5 3 -10 2 -10 -3 0 -6 -7 -13 -16 -16 -8
-3 -12 -2 -9 4 3 6 2 10 -4 10 -5 0 -12 8 -14 18 -2 9 -3 3 -1 -15 2 -26 -1
-31 -13 -26 -10 4 -14 2 -10 -4 4 -6 -5 -14 -21 -18 -49 -14 -54 -14 -43 -1 6
7 8 16 4 19 -3 4 -1 7 5 7 7 0 12 -6 12 -12 0 -7 5 -5 11 5 6 10 8 21 5 24 -3
4 -6 1 -6 -6 0 -7 -4 -10 -9 -6 -5 3 -7 22 -5 43 5 35 5 36 -10 18 -9 -11 -14
-29 -11 -40 3 -12 2 -15 -1 -8 -3 6 -13 12 -21 12 -13 0 -13 -3 -3 -15 11 -13
11 -18 0 -28 -10 -9 -11 -9 -5 2 4 7 3 16 -3 20 -6 3 -8 18 -5 33 3 16 10 25
16 21 6 -4 8 0 5 8 -3 8 7 32 22 52 26 36 28 36 34 15 3 -13 6 -35 6 -50 0
-16 5 -28 10 -28 6 0 8 15 4 40 -4 27 -3 40 5 40 6 0 11 5 11 10 0 6 -7 10
-17 10 -9 0 -13 3 -10 6 3 4 1 16 -4 28 -7 13 0 9 19 -11 17 -18 35 -33 41
-33z m64 17 c-16 -21 -22 -23 -36 -12 -15 11 -14 13 8 23 14 6 25 17 25 24 0
9 3 9 11 1 9 -9 7 -18 -8 -36z m-308 -8 c11 -16 1 -19 -13 -3 -7 8 -8 14 -3
14 5 0 13 -5 16 -11z m89 -75 c3 -8 2 -12 -4 -9 -6 3 -10 10 -10 16 0 14 7 11
14 -7z m-88 -19 c-3 -9 0 -25 7 -36 10 -16 9 -21 -3 -29 -20 -13 -43 -13 -35
0 4 6 10 8 15 5 14 -9 23 15 11 29 -10 12 -6 46 6 46 3 0 2 -7 -1 -15z m25
-18 c-10 -9 -11 -8 -5 6 3 10 9 15 12 12 3 -3 0 -11 -7 -18z m39 -48 c0 -11
-27 -29 -33 -22 -14 13 -6 29 13 29 11 0 20 -3 20 -7z m-65 -59 c2 -12 1 -20
-2 -16 -4 4 -8 16 -10 28 -4 28 6 18 12 -12z m55 7 c0 5 9 9 19 10 18 2 18 0
4 -17 -18 -20 -38 -17 -47 7 -5 13 -4 14 9 3 8 -7 15 -8 15 -3z m134 -3 c25
-10 19 -22 -9 -16 -14 2 -22 8 -19 13 6 11 8 11 28 3z m-74 -29 c18 -22 7 -28
-31 -16 l-34 11 35 -5 c33 -4 34 -4 16 10 -11 8 -15 15 -9 15 6 0 16 -7 23
-15z m38 -20 c-3 -3 -9 2 -12 12 -6 14 -5 15 5 6 7 -7 10 -15 7 -18z m-130
-10 c-3 -3 -9 2 -12 12 -6 14 -5 15 5 6 7 -7 10 -15 7 -18z m153 2 c-10 -9
-11 -8 -5 6 3 10 9 15 12 12 3 -3 0 -11 -7 -18z m1286 -19 c-3 -8 -6 -5 -6 6
-1 11 2 17 5 13 3 -3 4 -12 1 -19z m-1176 -20 c1 -18 1 -37 0 -42 -3 -16 33
-47 48 -41 9 4 3 -7 -13 -24 -33 -34 -44 -34 -26 -1 9 17 9 25 -1 34 -9 8 -11
7 -6 -6 5 -14 1 -17 -15 -14 -12 1 -24 9 -26 16 -3 8 0 10 8 5 10 -6 11 2 6
39 -4 25 -4 50 -1 56 12 20 25 9 26 -22z m1915 17 c58 -15 227 -66 232 -70 1
-1 -21 -40 -50 -86 -29 -46 -78 -126 -108 -177 -30 -50 -59 -92 -66 -92 -6 0
-74 20 -150 45 -76 25 -145 45 -151 45 -19 0 -16 7 15 48 15 20 42 57 60 82
89 125 157 220 159 220 1 0 27 -7 59 -15z m-1697 -35 c16 -11 34 -20 40 -20
17 0 43 -60 46 -107 2 -24 6 -58 10 -75 6 -26 5 -31 -5 -21 -7 6 -13 26 -14
42 -1 33 -6 37 -23 20 -9 -9 -14 -3 -21 22 -6 20 -10 26 -11 14 -1 -36 39
-108 78 -142 22 -18 65 -67 96 -108 31 -41 65 -80 75 -85 11 -6 20 -16 20 -23
0 -20 -36 -45 -72 -50 -18 -2 -4 -4 32 -5 36 -1 108 7 160 18 52 11 97 15 100
11 3 -5 22 -16 42 -24 20 -8 42 -26 48 -39 7 -12 26 -36 42 -51 29 -26 30 -31
26 -92 -2 -37 -10 -70 -17 -77 -11 -11 -12 -10 -6 1 4 7 7 33 7 58 -1 43 -26
92 -62 120 -26 21 -30 14 -5 -11 32 -32 38 -60 27 -126 l-10 -55 -1 62 c0 34
-6 65 -12 68 -6 4 -8 14 -5 22 3 8 1 11 -5 8 -14 -9 -49 24 -49 46 0 10 -9 24
-20 32 -11 8 -17 17 -14 20 4 3 15 -4 25 -16 10 -12 18 -17 19 -12 0 36 -68
62 -112 42 -15 -6 -28 -15 -28 -19 0 -11 8 -10 33 7 12 8 28 11 35 6 9 -5 6
-10 -10 -18 -43 -19 -153 -54 -143 -45 6 5 28 15 50 22 33 11 36 14 20 20 -12
4 -29 1 -42 -7 -12 -8 -30 -13 -40 -11 -10 1 -25 -2 -33 -6 -9 -6 -7 0 5 14
l20 23 -20 -7 c-11 -5 -27 -8 -35 -8 -42 2 -90 -11 -83 -21 4 -7 1 -7 -9 1
-13 10 -18 10 -24 1 -4 -8 -3 -9 4 -5 7 4 10 2 7 -6 -3 -8 -17 -15 -30 -16
-29 -2 -31 1 -9 22 14 15 13 16 -6 16 -13 0 -19 -4 -14 -12 5 -7 3 -8 -5 -4
-13 8 -71 -11 -69 -23 2 -22 -5 -31 -24 -30 -18 1 -19 2 -5 6 9 2 15 9 11 14
-6 11 32 49 50 50 30 1 128 27 107 28 -20 1 -22 3 -11 16 11 13 15 13 21 3 7
-10 11 -10 21 0 6 6 20 12 29 12 9 0 20 7 23 16 6 14 4 15 -9 4 -14 -12 -21
-8 -51 25 -51 57 -46 75 8 29 40 -33 60 -18 29 22 -47 60 -102 114 -116 114
-21 0 -95 -48 -95 -61 0 -6 6 -9 13 -6 6 2 11 10 10 16 -2 6 2 11 7 11 14 0
12 -22 -5 -44 -8 -11 -15 -28 -15 -37 0 -10 -3 -19 -7 -22 -5 -2 -2 -2 5 0 7
1 10 -2 7 -7 -15 -25 -85 -7 -85 21 0 23 -19 24 -46 3 -18 -15 -18 -15 3 -5
29 15 36 14 29 -4 -3 -8 0 -15 7 -15 7 0 4 -5 -7 -11 -10 -6 -35 -9 -56 -6
-21 2 -44 1 -51 -4 -10 -6 -11 -9 -1 -9 6 0 12 -12 12 -26 0 -22 -3 -25 -22
-20 -13 3 -29 6 -36 6 -8 0 -36 21 -62 48 -27 26 -56 54 -65 62 -8 8 -27 29
-40 45 -13 17 -25 27 -25 24 0 -3 9 -16 20 -29 11 -13 20 -29 20 -35 0 -7 16
-20 35 -29 47 -23 52 -35 16 -42 -40 -8 -99 -66 -123 -121 -19 -43 -19 -43
-47 -28 -36 18 -138 129 -159 173 -15 31 -15 33 6 48 27 19 28 48 2 74 -14 14
-20 33 -20 63 0 31 3 38 10 27 5 -8 10 -23 10 -32 0 -11 8 -18 19 -18 55 0 68
35 26 68 l-25 20 29 31 30 32 46 -33 c42 -29 53 -33 110 -32 34 1 95 12 135
24 109 34 170 97 170 176 l0 37 50 -6 c28 -3 64 -15 79 -27z m-269 12 c0 -5
-7 -9 -15 -9 -8 0 -15 4 -15 9 0 4 7 8 15 8 8 0 15 -4 15 -8z m1141 -8 c30 -9
58 -19 62 -23 7 -7 -18 -190 -27 -198 -2 -2 -17 2 -35 8 -49 17 -62 -2 -65
-90 -2 -76 -20 -114 -31 -69 -4 14 -20 38 -36 54 -30 29 -41 28 -12 -2 9 -9
18 -34 19 -55 2 -42 -10 -63 -14 -23 -4 56 -72 138 -94 116 -9 -9 -9 -18 0
-37 14 -30 2 -34 -16 -5 -8 13 -10 34 -6 54 3 21 1 36 -5 41 -18 11 -1 26 21
19 14 -4 18 -3 13 6 -9 14 -64 6 -148 -22 -33 -10 -76 -21 -96 -24 -33 -4 -34
-3 -16 10 11 7 46 19 78 26 33 6 75 18 94 27 20 8 48 12 62 8 15 -3 21 -2 13
3 -9 6 14 35 80 100 51 51 95 92 98 92 4 0 31 -7 61 -16z m-1221 -15 c0 -14
-17 -10 -23 5 -4 10 -1 13 9 9 7 -3 14 -9 14 -14z m9 -43 c27 -30 47 -56 44
-60 -4 -4 -13 4 -20 16 l-14 23 6 -22 c10 -37 -12 -27 -40 17 -14 23 -39 49
-55 59 l-30 18 29 1 c23 0 40 -11 80 -52z m36 44 c3 -5 4 -10 1 -10 -2 0 -11
-2 -19 -5 -8 -4 -14 0 -14 10 0 17 22 21 32 5z m21 -16 c-4 -9 4 -28 19 -46
37 -44 33 -62 -21 -83 -57 -22 -65 -15 -19 16 19 13 35 28 35 33 0 6 -12 23
-27 38 -26 27 -26 28 -7 43 25 19 27 18 20 -1z m-106 -55 c7 -11 9 -23 6 -27
-3 -3 -6 0 -6 6 0 6 -7 18 -16 26 -8 9 -11 16 -5 16 6 0 15 -9 21 -21z m-30
-36 c0 -12 -2 -12 -15 1 -8 8 -15 17 -15 20 0 3 7 3 15 0 8 -4 15 -13 15 -21z
m-30 -6 c12 -4 11 -6 -3 -6 -10 -1 -15 -5 -12 -11 3 -5 1 -10 -4 -10 -6 0 -11
12 -11 28 0 15 4 22 8 16 4 -6 14 -14 22 -17z m58 -38 c-20 -13 -28 -11 -22 5
3 8 12 12 21 9 12 -5 12 -7 1 -14z m-68 -19 c0 -5 -5 -10 -11 -10 -5 0 -7 5
-4 10 3 6 8 10 11 10 2 0 4 -4 4 -10z m705 -81 l40 -8 -48 2 c-32 2 -46 -1
-43 -9 8 -20 -41 10 -64 39 -29 37 -25 39 27 9 26 -14 66 -30 88 -33z m355 20
c0 -3 -6 -6 -14 -6 -7 0 -12 7 -11 16 2 9 4 18 4 21 2 6 21 -23 21 -31z m-254
1 c-22 -10 -46 -15 -55 -12 -10 4 -4 9 20 18 54 20 80 15 35 -6z m114 -25 c-7
-9 -19 -14 -26 -11 -8 3 -11 0 -7 -10 4 -10 -2 -17 -16 -21 -11 -3 -21 -9 -21
-14 0 -5 -5 -9 -11 -9 -8 0 -8 5 1 15 9 11 9 15 1 15 -7 0 -9 5 -6 10 3 6 -3
10 -14 10 -42 0 -28 16 17 19 25 1 48 4 51 7 2 2 13 4 24 4 16 0 17 -2 7 -15z
m55 -6 c-27 -12 -57 -26 -65 -32 -8 -6 -6 -2 4 11 11 12 25 22 33 22 8 0 12 4
9 8 -3 5 11 9 32 10 l37 1 -50 -20z m80 -11 c-6 -26 -1 -35 39 -66 36 -28 53
-19 26 15 -19 24 -27 53 -15 53 10 0 54 -55 55 -67 0 -6 -4 -13 -9 -15 -4 -1
-32 -29 -61 -61 l-52 -57 33 -35 c28 -29 40 -35 68 -33 19 2 36 -2 38 -8 2 -6
-9 -10 -26 -9 -29 2 -29 1 -13 -21 9 -12 27 -27 40 -33 12 -6 22 -16 22 -22 0
-7 -8 -5 -20 6 -24 22 -25 16 -5 -32 11 -25 12 -40 5 -47 -7 -7 -10 -4 -10 8
0 11 -8 25 -17 33 -11 9 -12 12 -3 7 8 -4 -1 11 -21 32 -56 62 -79 95 -72 108
3 6 2 8 -2 3 -5 -4 -17 1 -28 10 -15 13 -18 14 -12 3 8 -12 5 -12 -15 1 -18
12 -26 27 -27 53 -2 25 1 34 9 30 7 -4 8 -3 4 4 -12 20 -33 2 -33 -29 0 -17
-6 -35 -13 -39 -11 -7 -169 -40 -191 -40 -15 0 240 247 266 256 44 17 46 16
40 -8z m-425 -18 c0 -5 -2 -10 -4 -10 -3 0 -8 5 -11 10 -3 6 -1 10 4 10 6 0
11 -4 11 -10z m90 6 c0 -2 -9 -6 -20 -9 -11 -3 -18 -1 -14 4 5 9 34 13 34 5z
m640 -11 c-7 -8 -17 -15 -22 -15 -11 0 14 29 26 30 5 0 3 -7 -4 -15z m-693
-20 c0 -8 -4 -12 -9 -9 -5 3 -6 10 -3 15 9 13 12 11 12 -6z m53 5 c0 -5 -5
-10 -11 -10 -5 0 -7 5 -4 10 3 6 8 10 11 10 2 0 4 -4 4 -10z m50 0 c0 -5 -5
-10 -11 -10 -5 0 -7 5 -4 10 3 6 8 10 11 10 2 0 4 -4 4 -10z m-240 -73 c0 -46
-68 -107 -120 -107 -21 0 -46 3 -55 7 -14 5 -12 8 11 18 16 7 38 9 50 5 11 -5
28 -4 37 1 9 6 17 6 17 2 0 -4 9 5 20 22 12 18 15 32 9 36 -6 4 -8 21 -3 44 6
35 8 37 20 20 8 -10 14 -32 14 -48z m130 -39 c0 -17 -18 -6 -54 31 -23 24 -35
44 -31 51 5 8 20 -2 46 -31 22 -24 39 -47 39 -51z m-84 17 c-1 -13 -8 -30 -15
-39 -17 -20 5 -32 26 -14 14 11 15 11 7 -2 -5 -8 -9 -24 -9 -35 0 -12 -11 -25
-29 -33 -30 -15 -37 -15 -129 -6 -66 7 -74 27 -11 32 21 2 43 8 49 13 13 13
25 11 25 -5 0 -25 25 -37 45 -22 13 9 16 20 11 40 -4 15 -11 24 -17 21 -7 -5
-6 -11 1 -20 14 -17 5 -35 -18 -35 -12 0 -13 3 -4 12 15 15 16 32 2 23 -16
-10 -12 11 5 25 8 6 17 22 21 33 15 50 45 59 40 12z m794 5 c0 -5 -5 -10 -11
-10 -5 0 -7 5 -4 10 3 6 8 10 11 10 2 0 4 -4 4 -10z m-880 -15 c0 -8 -4 -15
-10 -15 -5 0 -10 7 -10 15 0 8 5 15 10 15 6 0 10 -7 10 -15z m-318 -82 c33
-22 57 -28 170 -40 72 -7 134 -16 137 -19 3 -4 -55 -3 -129 1 -74 5 -152 8
-172 8 -21 -1 -35 3 -32 8 3 5 -1 7 -8 4 -7 -3 -26 4 -43 15 -16 11 -24 20
-17 20 7 0 20 7 28 15 20 20 22 19 66 -12z m-100 -40 c-6 -2 -9 -9 -6 -14 4
-7 10 -7 17 0 8 6 21 5 37 -4 14 -8 21 -14 15 -14 -5 -1 -16 3 -24 8 -9 6 -23
4 -38 -6 -22 -15 -23 -14 -17 3 7 19 6 19 -12 0 -14 -13 -15 -20 -6 -23 6 -3
12 -9 12 -15 0 -6 -9 -3 -20 7 l-21 19 28 22 c15 13 33 23 38 23 6 0 4 -3 -3
-6z m108 -33 c11 -7 11 -10 2 -10 -7 0 -11 -4 -8 -8 3 -5 -1 -9 -9 -9 -11 0
-12 4 -4 13 7 8 6 14 -3 17 -7 3 -8 6 -3 6 6 0 17 -4 25 -9z m67 -11 c-11 -7
-23 -7 -28 -2 -5 5 3 9 19 11 24 1 25 0 9 -9z m167 1 c-7 -7 -19 -7 -35 -1
-23 9 -22 10 11 10 23 1 31 -2 24 -9z m-114 -10 c-8 -5 -24 -9 -35 -9 l-20 0
20 9 c11 5 27 9 35 9 13 1 13 0 0 -9z m385 0 c4 -6 11 -7 17 -4 7 4 8 2 4 -4
-9 -16 7 -15 22 0 6 6 14 9 17 6 9 -9 -64 -40 -88 -36 -27 4 -35 35 -10 41 29
8 32 7 38 -3z m-313 -23 c-12 -7 -19 -17 -15 -22 4 -4 2 -5 -5 -1 -7 4 -20 2
-29 -6 -10 -7 -14 -8 -10 -1 4 6 4 13 0 16 -5 2 -3 3 3 1 5 -1 21 4 35 12 13
7 29 13 34 13 6 0 0 -5 -13 -12z m-179 -4 c-18 -2 -48 -2 -65 0 -18 2 -4 4 32
4 36 0 50 -2 33 -4z m95 -8 c3 -3 -4 -4 -16 -2 -12 2 -24 6 -28 10 -4 3 4 4
16 2 12 -2 25 -7 28 -10z m269 9 c-3 -3 -12 -4 -19 -1 -8 3 -5 6 6 6 11 1 17
-2 13 -5z m48 -4 c-3 -5 -14 -10 -23 -9 -14 0 -13 2 3 9 27 11 27 11 20 0z
m185 -3 c0 -8 -11 -19 -24 -25 -20 -9 -24 -8 -21 6 1 9 10 16 19 16 9 -1 16 2
16 7 0 5 2 9 5 9 3 0 5 -6 5 -13z m64 5 c2 -4 -10 -8 -27 -9 -30 -1 -30 -1 -7
7 14 4 26 8 27 9 1 1 4 -3 7 -7z m-324 -12 c8 -5 11 -10 5 -10 -5 0 -17 5 -25
10 -8 5 -10 10 -5 10 6 0 17 -5 25 -10z m944 -95 c25 -10 46 -20 46 -22 0 -2
-12 -20 -26 -39 -20 -25 -23 -35 -13 -39 8 -3 46 -16 84 -29 39 -14 101 -36
138 -50 106 -40 106 -40 171 67 87 142 74 132 145 106 34 -12 61 -24 61 -27 0
-3 -20 -39 -44 -81 -24 -42 -53 -92 -64 -111 -11 -19 -68 -118 -127 -220 -59
-102 -119 -205 -133 -230 -14 -25 -45 -78 -69 -118 -24 -41 -43 -75 -43 -77 0
-2 -25 -44 -55 -94 -30 -50 -55 -93 -55 -95 0 -3 -19 -38 -43 -78 -23 -40 -51
-90 -62 -110 -11 -21 -23 -38 -26 -38 -4 0 -67 31 -140 69 -393 201 -665 340
-939 478 -168 85 -305 159 -305 164 0 16 547 559 563 559 18 0 122 30 242 71
47 16 89 29 93 29 5 0 -20 -32 -55 -71 -35 -38 -63 -75 -63 -80 0 -12 309
-147 352 -154 36 -7 44 1 129 110 38 50 89 116 114 147 l44 56 17 -38 c13 -29
27 -41 63 -55z m-1217 69 c0 -16 -13 -18 -22 -4 -4 6 -10 8 -15 5 -5 -3 -11
-2 -13 2 -3 5 7 9 22 9 17 1 28 -4 28 -12z m146 1 c-6 -16 27 -29 41 -15 7 7
5 10 -7 10 -9 0 -17 5 -17 10 0 12 17 13 24 1 3 -5 16 -7 29 -5 22 5 22 4 1
-5 -12 -5 -25 -14 -29 -20 -9 -16 -32 -13 -54 6 -22 18 -20 30 3 30 8 0 12 -6
9 -12z m282 5 c-3 -5 -11 -10 -16 -10 -6 0 -7 5 -4 10 3 6 11 10 16 10 6 0 7
-4 4 -10z m-390 -11 c11 -17 -1 -21 -15 -4 -8 9 -8 15 -2 15 6 0 14 -5 17 -11z
m359 -5 c3 -9 11 -12 18 -8 10 5 10 4 2 -6 -10 -9 -16 -8 -33 9 -15 15 -17 21
-7 21 8 0 17 -7 20 -16z m-102 -16 c-14 -13 -66 -13 -59 0 3 4 19 7 36 7 16 0
27 -3 23 -7z m76 -5 c-10 -2 -26 -2 -35 0 -10 3 -2 5 17 5 19 0 27 -2 18 -5z
m-319 -43 c13 -7 10 -10 -12 -15 -46 -12 -31 -28 19 -20 37 5 45 4 38 -7 -6
-10 -5 -11 7 -2 15 12 99 24 99 14 0 -3 -31 -36 -68 -73 l-68 -68 -90 91 c-49
50 -91 93 -94 97 -7 9 151 -7 169 -17z"/>
<path d="M3100 3835 c0 -20 5 -25 25 -25 14 0 25 4 25 9 0 5 -9 7 -20 4 -11
-3 -20 0 -20 6 0 6 9 11 20 11 11 0 20 5 20 10 0 6 -11 10 -25 10 -20 0 -25
-5 -25 -25z"/>
<path d="M3203 3833 c0 -7 3 -11 5 -8 3 3 11 0 18 -6 9 -8 11 -6 7 9 -5 21
-30 26 -30 5z"/>
<path d="M3010 3820 c0 -5 11 -10 25 -10 14 0 25 5 25 10 0 6 -11 10 -25 10
-14 0 -25 -4 -25 -10z"/>
<path d="M1247 3333 c-4 -3 -7 -21 -7 -40 0 -28 3 -33 24 -33 23 0 36 21 36
63 0 17 -39 25 -53 10z"/>
<path d="M2120 3321 c-14 -27 -13 -84 3 -105 17 -23 63 -24 85 -2 20 20 22 87
3 110 -19 23 -78 21 -91 -3z"/>
<path d="M2352 3248 c-30 -30 4 -63 47 -46 27 10 41 25 41 46 0 16 -72 16 -88
0z"/>
<path d="M978 3004 c-2 -19 0 -37 4 -40 4 -3 8 13 8 35 0 51 -6 53 -12 5z"/>
<path d="M1075 2951 c-8 -14 19 -53 30 -43 4 4 5 -1 2 -11 -4 -11 -10 -31 -13
-45 l-5 -27 15 25 c21 35 20 70 -1 70 -14 0 -15 2 -5 9 10 6 10 10 -2 20 -10
8 -16 9 -21 2z"/>
<path d="M990 2924 c0 -8 5 -12 10 -9 6 4 8 11 5 16 -9 14 -15 11 -15 -7z"/>
<path d="M1108 2723 c-9 -38 -15 -69 -13 -71 4 -5 45 87 45 102 0 6 -4 17 -8
23 -5 8 -14 -13 -24 -54z"/>
<path d="M976 2712 c-4 -7 0 -26 8 -44 9 -17 16 -43 16 -57 0 -19 3 -22 9 -12
7 11 10 10 14 -5 4 -17 5 -17 6 -1 0 10 -7 37 -18 60 -10 23 -20 49 -23 57 -3
10 -6 11 -12 2z"/>
<path d="M1129 2647 c-7 -15 -8 -34 -4 -44 6 -14 10 -9 15 22 9 48 5 57 -11
22z"/>
<path d="M1112 2375 c0 -16 2 -22 5 -12 2 9 2 23 0 30 -3 6 -5 -1 -5 -18z"/>
<path d="M1360 1929 c-7 -11 -9 -23 -6 -27 3 -3 6 0 6 6 0 7 5 12 10 12 6 0
10 -7 10 -15 0 -8 14 -29 30 -47 18 -19 28 -38 25 -47 -3 -11 0 -9 10 3 19 25
19 47 0 40 -11 -4 -15 1 -16 17 0 13 -3 18 -6 12 -8 -20 -33 11 -33 41 0 31
-15 34 -30 5z"/>
<path d="M1295 1930 c-4 -6 -11 -8 -16 -5 -5 4 -9 1 -9 -4 0 -6 -9 -11 -21
-11 -12 0 -23 -8 -26 -20 -3 -11 -12 -20 -19 -20 -8 0 -14 -4 -14 -10 0 -5 -7
-10 -16 -10 -8 0 -12 -4 -9 -10 3 -5 -3 -10 -14 -10 -12 0 -21 -4 -21 -10 0
-5 -7 -10 -16 -10 -8 0 -12 -4 -9 -10 3 -5 16 -10 28 -10 18 0 19 -2 7 -10 -8
-5 -10 -10 -4 -10 6 0 17 7 25 16 10 12 10 17 1 23 -9 5 -4 12 13 21 14 7 25
17 25 22 0 4 7 8 15 8 8 0 15 9 15 20 0 12 6 20 13 19 18 -3 67 19 67 31 0 13
-7 13 -15 0z"/>
<path d="M1310 1865 c-13 -14 -21 -25 -17 -25 3 0 18 11 33 25 15 14 23 25 17
25 -5 0 -20 -11 -33 -25z"/>
<path d="M1365 1837 c-16 -13 -15 -14 13 -9 18 2 32 8 32 13 0 13 -24 11 -45
-4z"/>
<path d="M1220 1820 c-9 -16 -8 -18 5 -14 8 4 15 10 15 16 0 5 5 6 10 3 6 -3
10 -1 10 4 0 19 -29 12 -40 -9z"/>
<path d="M1331 1814 c0 -11 3 -14 6 -6 3 7 2 16 -1 19 -3 4 -6 -2 -5 -13z"/>
<path d="M1367 1813 c-12 -11 -8 -23 8 -23 8 0 15 7 15 15 0 16 -12 20 -23 8z"/>
<path d="M1070 1791 c0 -5 7 -12 16 -15 24 -9 27 -7 10 9 -17 17 -26 19 -26 6z"/>
<path d="M1188 1783 c6 -2 18 -2 25 0 6 3 1 5 -13 5 -14 0 -19 -2 -12 -5z"/>
<path d="M1244 1772 c-25 -21 -41 -62 -25 -62 10 0 15 14 12 32 0 4 13 15 29
23 17 9 30 18 30 20 0 11 -26 3 -46 -13z"/>
<path d="M1178 1763 c7 -3 16 -2 19 1 4 3 -2 6 -13 5 -11 0 -14 -3 -6 -6z"/>
<path d="M1340 1759 c0 -5 -7 -9 -15 -9 -8 0 -15 -8 -15 -17 0 -13 2 -15 9 -5
4 7 21 16 37 21 27 7 28 8 6 13 -12 3 -22 2 -22 -3z"/>
<path d="M1250 1734 c0 -9 5 -14 12 -12 18 6 21 28 4 28 -9 0 -16 -7 -16 -16z"/>
<path d="M1352 1728 c-17 -17 -15 -25 8 -31 15 -4 20 0 20 13 0 24 -14 32 -28
18z"/>
<path d="M1115 1720 c-4 -6 3 -10 14 -10 25 0 27 6 6 13 -8 4 -17 2 -20 -3z"/>
<path d="M1168 1723 c7 -3 16 -2 19 1 4 3 -2 6 -13 5 -11 0 -14 -3 -6 -6z"/>
<path d="M1130 1686 c0 -8 9 -18 21 -21 15 -5 19 -13 15 -28 -5 -21 -5 -21 9
-3 19 25 19 47 1 40 -7 -3 -21 2 -30 11 -14 14 -16 14 -16 1z"/>
<path d="M2084 1936 c11 -9 24 -16 30 -16 12 0 7 5 -24 19 -24 11 -24 11 -6
-3z"/>
<path d="M2128 1872 c4 -10 7 -12 10 -4 2 7 9 9 15 5 7 -3 8 -2 4 2 -14 16
-36 14 -29 -3z"/>
<path d="M2060 1856 c0 -2 8 -10 18 -17 15 -13 16 -12 3 4 -13 16 -21 21 -21
13z"/>
<path d="M2170 1853 c0 -6 8 -17 18 -24 16 -13 16 -13 2 6 -8 11 -16 22 -17
24 -2 2 -3 0 -3 -6z"/>
<path d="M2146 1825 c4 -8 11 -15 16 -15 6 0 5 6 -2 15 -7 8 -14 15 -16 15 -2
0 -1 -7 2 -15z"/>
<path d="M1796 1822 c-3 -5 1 -9 9 -9 8 0 12 4 9 9 -3 4 -7 8 -9 8 -2 0 -6 -4
-9 -8z"/>
<path d="M1940 1656 c0 -2 8 -10 18 -17 15 -13 16 -12 3 4 -13 16 -21 21 -21
13z"/>
<path d="M2055 1510 c3 -5 8 -10 11 -10 2 0 4 5 4 10 0 6 -5 10 -11 10 -5 0
-7 -4 -4 -10z"/>
<path d="M1040 1590 c0 -5 5 -10 10 -10 6 0 10 5 10 10 0 6 -4 10 -10 10 -5 0
-10 -4 -10 -10z"/>
<path d="M1582 1120 c-21 -13 -35 -31 -39 -50 -3 -17 -10 -30 -15 -30 -5 0 -6
5 -3 10 11 17 -7 11 -21 -7 -25 -33 -9 -108 25 -116 9 -2 5 -4 -9 -3 -19 1
-25 -4 -25 -19 0 -26 44 -48 64 -32 12 9 13 9 7 0 -17 -30 137 2 178 36 18 15
22 130 6 166 -6 13 -7 -12 -3 -66 5 -84 5 -87 -18 -100 -13 -7 -50 -13 -82
-13 -75 -1 -87 14 -87 102 0 58 1 62 16 48 22 -23 58 -29 100 -19 77 18 70 70
-12 90 -39 9 -43 11 -19 12 17 0 43 -6 59 -14 16 -9 31 -13 33 -11 10 9 -57
36 -89 36 -18 0 -48 -9 -66 -20z m12 -16 c-18 -14 -18 -15 6 -7 32 9 75 7 100
-7 35 -19 22 -25 -50 -25 -51 0 -70 4 -70 13 0 8 -5 10 -12 6 -7 -4 -4 2 6 14
11 12 24 22 29 22 6 0 2 -7 -9 -16z m96 -53 c0 -12 -33 -20 -64 -14 -42 8 -30
23 19 23 25 0 45 -4 45 -9z m-178 -43 c-3 -22 0 -35 14 -45 10 -7 13 -13 8
-13 -27 0 -47 63 -27 83 10 10 10 9 5 -25z m38 -20 c0 -10 -7 -18 -15 -18 -15
0 -21 40 -8 53 9 9 23 -13 23 -35z"/>
<path d="M2102 777 c-12 -13 -22 -35 -22 -50 0 -19 -8 -31 -29 -42 -39 -20
-71 -66 -71 -102 1 -26 2 -27 15 -9 13 16 14 13 12 -36 -2 -47 2 -59 30 -95
18 -22 47 -47 65 -56 30 -15 34 -14 72 7 27 15 40 30 39 42 -1 10 5 23 12 28
11 8 12 20 6 48 -5 22 -5 36 0 32 5 -3 9 -16 9 -30 0 -40 27 -29 35 16 7 42
-1 84 -15 75 -5 -3 -15 4 -23 16 -12 16 -13 29 -5 55 12 44 3 86 -22 109 -17
15 -24 16 -52 5 -18 -7 -40 -18 -48 -24 -9 -6 -5 -1 8 12 13 12 19 22 14 22
-5 0 -18 -10 -30 -23z m18 -78 c0 -5 -4 -9 -10 -9 -5 0 -10 7 -10 16 0 8 5 12
10 9 6 -3 10 -10 10 -16z m48 -16 c-2 -9 -10 -18 -18 -20 -13 -4 -13 -3 0 6
11 8 12 11 2 11 -7 0 -10 5 -7 10 10 16 27 11 23 -7z m-38 -45 c10 -3 9 -6 -6
-10 -14 -3 -25 1 -33 14 -10 17 -10 18 6 10 10 -5 25 -11 33 -14z m-36 -23 c5
-13 9 -13 26 -3 26 16 39 3 51 -52 12 -54 4 -83 -21 -75 -10 3 -27 1 -38 -6
-31 -19 -52 -5 -52 35 0 27 -3 34 -15 30 -21 -8 -19 20 2 57 19 32 38 37 47
14z m173 -57 c-3 -8 -6 -5 -6 6 -1 11 2 17 5 13 3 -3 4 -12 1 -19z m-217 -47
c0 -28 -17 -35 -29 -12 -15 27 -14 31 9 31 13 0 20 -7 20 -19z m114 -57 c4
-10 -3 -14 -24 -14 -32 0 -37 9 -19 27 14 14 35 7 43 -13z"/>
<path d="M2230 646 c0 -2 8 -10 18 -17 15 -13 16 -12 3 4 -13 16 -21 21 -21
13z"/>
</g>
</svg>
